<?xml version="1.0" standalone="no"?>
<!DOCTYPE svg PUBLIC "-//W3C//DTD SVG 20010904//EN"
 "http://www.w3.org/TR/2001/REC-SVG-20010904/DTD/svg10.dtd">
<svg version="1.0" xmlns="http://www.w3.org/2000/svg"
 width="160" height="184" viewBox="0 0 489.000000 434.000000"
 preserveAspectRatio="xMidYMid meet">

<g transform="translate(0.000000,434.000000) scale(0.100000,-0.100000)"
fill="#000000" stroke="none">
<path d="M2736 4325 c-3 -8 -9 -15 -13 -14 -23 4 -43 -2 -38 -11 3 -5 -6 -12
-20 -16 -14 -3 -25 -10 -25 -15 0 -5 -7 -9 -15 -9 -8 0 -15 4 -15 9 0 5 -11
11 -25 13 -19 4 -25 1 -25 -13 0 -12 -10 -21 -25 -25 -14 -3 -25 -12 -25 -18
0 -8 -17 -13 -47 -15 -25 0 -60 -8 -76 -16 -38 -19 -38 -19 -30 3 3 9 -7 2
-23 -16 -23 -25 -38 -33 -69 -35 -22 -1 -42 -4 -45 -7 -3 -3 -37 -18 -77 -33
-84 -33 -112 -57 -65 -57 20 0 31 6 35 18 2 11 14 21 25 25 19 4 20 2 12 -13
-13 -24 -50 -50 -71 -50 -9 0 -22 -7 -29 -15 -15 -18 -44 -20 -34 -2 10 17 -5
0 -48 -54 -24 -30 -52 -52 -80 -62 -29 -11 -61 -37 -96 -76 -28 -33 -52 -63
-52 -66 0 -7 -52 -90 -101 -162 -16 -23 -29 -48 -29 -57 0 -8 -14 -41 -32 -73
-17 -32 -35 -78 -40 -103 -4 -25 -12 -65 -18 -90 -11 -55 -12 -248 -1 -393 7
-81 13 -113 26 -127 13 -15 22 -17 31 -9 15 12 19 6 29 -41 4 -19 16 -41 27
-48 12 -9 16 -18 10 -25 -5 -7 -9 -23 -10 -36 -1 -29 -7 -35 -27 -28 -20 8
-20 57 0 57 8 0 15 5 15 10 0 7 -6 7 -20 0 -11 -6 -20 -15 -20 -20 0 -15 -19
-12 -36 5 -24 23 -37 18 -30 -11 4 -16 3 -23 -3 -19 -7 3 -8 0 -5 -9 4 -11 0
-16 -10 -16 -9 0 -16 8 -16 18 0 12 -9 18 -34 19 l-33 3 -6 -68 c-4 -37 -4
-78 -1 -92 10 -41 57 -154 72 -172 11 -13 11 -18 3 -18 -7 0 -9 -5 -4 -12 8
-15 7 -10 22 -101 11 -65 28 -107 43 -107 10 0 20 38 13 50 -3 6 4 10 17 10
20 0 23 -5 23 -37 0 -21 -4 -41 -10 -45 -19 -13 3 -19 29 -7 14 7 29 9 33 5
11 -11 -11 -25 -45 -28 -21 -1 -32 -7 -32 -18 0 -9 -5 -21 -11 -27 -11 -11 7
-53 23 -53 5 0 8 -7 8 -15 0 -9 8 -19 18 -22 9 -4 28 -18 42 -31 14 -13 37
-28 52 -34 22 -8 28 -18 34 -56 14 -105 73 -241 126 -293 16 -16 29 -43 33
-66 16 -110 25 -174 31 -228 8 -71 6 -56 36 -227 l25 -136 -33 -6 c-40 -8
-154 -64 -154 -77 0 -5 -9 -9 -21 -9 -11 0 -17 -4 -14 -10 3 -5 0 -8 -7 -5
-15 6 -131 -68 -122 -77 3 -4 -4 -9 -15 -13 -12 -3 -21 -13 -21 -21 0 -9 -11
-14 -29 -14 -16 0 -36 -6 -43 -13 -7 -6 -48 -30 -90 -52 -43 -22 -78 -43 -78
-47 0 -5 -5 -8 -10 -8 -15 0 -105 -43 -108 -52 -2 -4 -15 -8 -28 -8 -13 0 -24
-4 -24 -10 0 -5 -19 -14 -41 -20 -23 -6 -49 -16 -58 -20 -9 -5 -33 -16 -53
-24 -27 -11 -35 -19 -32 -33 4 -15 -9 -23 -73 -47 -43 -16 -90 -37 -105 -48
-15 -10 -50 -24 -77 -31 -33 -7 -51 -18 -54 -29 -3 -10 -14 -18 -24 -18 -11 0
-37 -9 -59 -19 -21 -10 -59 -25 -84 -32 -25 -7 -49 -16 -54 -21 -6 -4 314 -8
711 -8 712 0 721 0 726 20 5 20 37 29 37 10 0 -5 5 -10 11 -10 5 0 7 5 4 10
-4 6 5 10 24 8 17 -1 31 -6 31 -10 0 -4 9 -8 20 -8 11 0 20 -4 20 -10 0 -5 5
-10 10 -10 6 0 10 7 10 15 0 8 5 15 10 15 6 0 10 -7 10 -15 0 -9 9 -15 25 -15
14 0 25 5 25 10 0 6 8 10 18 10 14 0 15 -2 2 -10 -12 -8 -11 -10 7 -10 12 0
24 6 26 13 4 9 6 9 6 0 1 -10 276 -13 1341 -13 l1340 0 0 248 0 248 -50 14
c-27 7 -50 18 -50 23 0 5 -7 6 -15 3 -9 -3 -18 1 -22 10 -3 9 -13 14 -24 11
-10 -3 -23 1 -30 9 -6 8 -18 14 -27 14 -23 0 -82 23 -82 32 0 4 -13 8 -28 8
-30 0 -82 20 -82 33 0 4 -7 7 -15 7 -8 0 -23 4 -33 9 -125 62 -259 119 -293
123 -13 2 -39 13 -56 26 -17 12 -38 22 -47 22 -9 0 -16 5 -16 10 0 6 -9 10
-19 10 -11 0 -23 4 -26 10 -3 5 -19 10 -34 10 -15 0 -42 7 -60 16 -22 11 -52
15 -106 12 -52 -2 -75 1 -75 8 0 14 -28 26 -41 18 -5 -3 -9 2 -9 10 0 9 -9 21
-20 28 -11 7 -20 18 -20 25 0 7 -6 13 -12 13 -22 0 -64 63 -71 105 -8 52 -22
238 -22 292 0 27 7 50 20 65 19 22 25 32 64 102 18 33 57 165 66 228 5 30 15
44 50 68 65 45 106 126 78 154 -10 10 -10 106 -1 106 4 0 8 -15 10 -32 6 -60
23 -34 39 57 9 50 25 111 36 136 43 95 103 290 103 332 0 53 -22 77 -71 77
-43 0 -79 -24 -80 -53 -1 -17 -3 -15 -8 8 -4 17 -2 34 4 38 7 6 6 10 -1 13 -8
3 -10 20 -7 44 5 38 4 40 -23 41 -17 1 -22 3 -11 6 9 2 17 9 17 14 0 6 6 9 13
8 51 -6 57 10 62 178 3 104 24 212 47 238 22 25 1 195 -24 195 -5 0 -8 7 -8
15 0 8 7 15 15 15 8 0 15 -4 15 -10 0 -5 9 -10 20 -10 11 0 20 5 20 10 0 6 -5
10 -11 10 -6 0 -9 6 -6 14 4 9 -4 16 -25 20 -21 4 -28 10 -25 21 4 8 2 17 -3
20 -6 4 -10 12 -10 18 0 7 11 -1 24 -18 25 -30 25 -30 22 -5 -2 24 -81 112
-105 117 -29 7 -47 40 -47 88 -1 58 -12 123 -23 145 -5 9 -12 30 -15 48 -8 34
-26 54 -26 28 0 -22 -18 -20 -22 2 -3 16 -4 16 -11 -1 -5 -13 0 -21 17 -29 24
-10 44 -67 31 -87 -3 -5 0 -11 7 -13 10 -4 9 -11 -2 -34 l-15 -29 -3 47 c-2
25 -10 52 -18 58 -7 7 -14 18 -14 25 0 7 -7 26 -15 41 -8 16 -15 37 -15 46 0
9 -7 21 -14 25 -8 5 -21 23 -29 42 -10 23 -17 30 -22 21 -6 -10 -12 -8 -24 8
-21 26 -67 41 -58 18 3 -8 2 -18 -3 -21 -6 -4 -10 -1 -10 5 0 7 -7 9 -16 6
-12 -5 -15 -2 -10 10 4 12 2 15 -9 10 -18 -6 -37 26 -29 48 3 9 1 16 -6 16 -6
0 -8 5 -4 11 4 7 0 9 -13 5 -13 -4 -26 1 -38 14 -10 11 -22 20 -27 20 -4 0
-17 8 -27 18 -41 37 -56 47 -65 44 -4 -2 -6 3 -3 11 7 18 -29 51 -37 34 -3 -9
-5 -9 -5 1 -1 9 -53 12 -225 12 -190 0 -225 -2 -230 -15z m-579 -967 c-3 -7
-5 -2 -5 12 0 14 2 19 5 13 2 -7 2 -19 0 -25z m-47 -49 c0 -5 6 -7 13 -3 9 5
9 4 0 -6 -6 -7 -16 -9 -22 -6 -14 9 -14 26 -1 26 6 0 10 -5 10 -11z m170 -20
c0 -18 -2 -19 -15 -9 -15 12 -12 30 6 30 5 0 9 -10 9 -21z m57 -11 c-3 -8 -6
-5 -6 6 -1 11 2 17 5 13 3 -3 4 -12 1 -19z m-219 -30 c-2 -6 -15 -13 -28 -15
-24 -3 -24 -3 -5 11 24 18 38 20 33 4z m297 -308 c-3 -5 -11 -10 -16 -10 -6 0
-7 5 -4 10 3 6 11 10 16 10 6 0 7 -4 4 -10z m-120 -10 c3 -5 2 -10 -4 -10 -5
0 -13 5 -16 10 -3 6 -2 10 4 10 5 0 13 -4 16 -10z m1653 -255 c3 -3 -2 -5 -11
-5 -9 0 -17 -6 -17 -12 0 -14 -20 10 -20 24 0 7 39 2 48 -7z m-2328 -156 c0
-10 -4 -19 -10 -19 -5 0 -10 12 -10 26 0 14 4 23 10 19 6 -3 10 -15 10 -26z
m1133 -314 c17 -5 18 -8 7 -12 -8 -3 -18 -11 -22 -17 -11 -16 -10 -48 2 -41 6
3 10 15 10 26 0 12 7 19 20 19 23 0 27 -18 5 -26 -8 -4 -15 -15 -15 -25 0 -13
-7 -19 -23 -19 -13 0 -29 -6 -35 -12 -10 -10 -15 -10 -22 2 -9 13 -11 13 -20
0 -16 -23 -31 7 -24 48 4 21 2 32 -5 32 -7 0 -10 -4 -7 -9 4 -5 -4 -7 -16 -3
-21 5 -21 5 3 15 13 6 33 9 43 8 13 -2 17 2 13 13 -4 11 -1 16 11 16 12 0 18
9 20 26 4 46 16 50 25 8 6 -30 14 -44 30 -49z m-1117 20 c-9 -9 -16 -13 -16
-8 0 12 22 34 28 28 2 -2 -3 -11 -12 -20z m1174 -85 c0 -5 -7 -10 -15 -10 -8
0 -15 5 -15 10 0 6 7 10 15 10 8 0 15 -4 15 -10z m-200 -10 c0 -5 -4 -10 -10
-10 -5 0 -10 5 -10 10 0 6 5 10 10 10 6 0 10 -4 10 -10z m1218 -1263 c48 -23
62 -37 38 -37 -9 0 -16 5 -16 10 0 6 -8 10 -18 10 -10 0 -27 7 -38 15 -10 8
-29 15 -42 15 -13 0 -20 4 -17 10 8 13 33 6 93 -23z m-1835 -179 c-1 -24 -7
-44 -13 -46 -5 -2 -10 -10 -10 -17 0 -7 -6 -16 -12 -19 -10 -5 -10 -7 0 -12
19 -9 14 -24 -8 -24 -25 0 -27 -20 -2 -21 15 -1 15 -2 1 -6 -17 -4 -19 -16
-18 -101 0 -29 -5 -44 -16 -48 -10 -4 -13 -14 -8 -32 4 -17 2 -23 -6 -18 -7 5
-11 -5 -11 -33 0 -22 -5 -42 -12 -44 -7 -3 -3 -6 10 -6 18 -1 23 -6 20 -23 -2
-12 -11 -22 -22 -24 -28 -4 -39 5 -26 21 9 10 3 14 -27 20 -44 7 -63 36 -63
96 0 21 -4 40 -9 43 -16 10 -23 82 -12 121 18 65 60 113 145 166 44 27 85 49
91 49 6 0 10 -17 8 -42z m-68 -408 c-3 -5 -12 -10 -18 -10 -7 0 -6 4 3 10 19
12 23 12 15 0z m-35 -90 c0 -5 -4 -10 -10 -10 -5 0 -10 5 -10 10 0 6 5 10 10
10 6 0 10 -4 10 -10z"/>
<path d="M2695 2190 c-3 -5 -1 -10 4 -10 6 0 11 5 11 10 0 6 -2 10 -4 10 -3 0
-8 -4 -11 -10z"/>
<path d="M3407 4220 c-3 -12 0 -20 8 -20 8 0 11 8 8 20 -3 11 -7 20 -8 20 -1
0 -5 -9 -8 -20z"/>
<path d="M212 4074 c10 -10 20 -15 24 -12 3 4 -5 12 -18 18 -22 12 -22 12 -6
-6z"/>
<path d="M338 4053 c7 -3 16 -2 19 1 4 3 -2 6 -13 5 -11 0 -14 -3 -6 -6z"/>
<path d="M608 4033 c6 -2 18 -2 25 0 6 3 1 5 -13 5 -14 0 -19 -2 -12 -5z"/>
<path d="M1258 4013 c7 -3 16 -2 19 1 4 3 -2 6 -13 5 -11 0 -14 -3 -6 -6z"/>
<path d="M1368 4003 c7 -3 16 -2 19 1 4 3 -2 6 -13 5 -11 0 -14 -3 -6 -6z"/>
<path d="M1433 4003 c9 -2 23 -2 30 0 6 3 -1 5 -18 5 -16 0 -22 -2 -12 -5z"/>
</g>
</svg>
